<svg width="69" height="68" viewBox="0 0 69 68" fill="none" xmlns="http://www.w3.org/2000/svg">
<mask id="path-1-outside-1_418_972" maskUnits="userSpaceOnUse" x="3.22973" y="8.9788" width="66.0597" height="42.0939" fill="black">
<rect fill="white" x="3.22973" y="8.9788" width="66.0597" height="42.0939"/>
<path d="M65.249 27.0159C65.2637 27.2969 65.2608 27.5055 65.1681 27.7743C64.9005 28.0498 64.5083 28.2787 64.1414 28.4929C64.0157 28.5662 63.893 28.6378 63.7793 28.709C63.2741 29.0253 62.766 29.3374 62.2579 29.6496L62.2577 29.6498C61.748 29.9629 61.2383 30.276 60.7316 30.5933C60.3406 33.6129 59.3592 36.6336 57.6067 39.1763C56.2088 41.0963 53.2243 44.028 48.8386 45.7729L48.8084 45.7839L48.8083 45.7839C48.1937 46.0081 47.5806 46.2316 46.9476 46.4129C44.6155 47.0808 42.1335 47.316 39.7068 47.3599L39.7044 47.3633C37.3082 47.3743 34.9222 47.1304 32.6886 46.7194C32.5462 46.6867 32.4024 46.6579 32.2589 46.6291C32.1326 46.6038 32.0065 46.5785 31.8818 46.5507C31.3113 46.4234 30.7409 46.2829 30.1768 46.1322C27.9348 45.5334 25.7845 44.697 23.7328 43.6514C22.0275 42.7823 20.3697 41.7937 18.8338 40.6735C17.4124 39.637 16.0783 38.4606 14.8474 37.2247C11.3946 33.758 8.7507 29.7036 7.29748 25.1184C6.51689 22.7827 6.18047 20.0651 6.62867 17.6411C6.86588 16.3581 7.40626 14.7965 8.58708 14.0213C9.29118 13.5591 10.2447 13.1953 11.0948 13.0881C11.369 13.0535 11.6833 13.0407 11.9493 13.1199C12.2871 13.2204 12.6146 13.4212 12.916 13.6061C12.9471 13.6252 12.978 13.6441 13.0085 13.6627C14.0137 14.2753 14.9167 14.9672 15.8045 15.7242C16.5876 16.3918 17.3476 17.0833 18.1078 17.7749L18.108 17.775C18.8337 18.4353 19.5595 19.0956 20.3057 19.7354C21.6093 20.8535 22.9903 21.9388 24.4527 22.8653C26.8065 24.3565 29.4084 25.5089 32.1344 26.2258C33.9284 26.7469 38.0905 27.5241 41.7304 26.5989C44.3989 25.9206 47.1315 25.5244 49.4766 25.3995C50.2468 25.3884 51.0171 25.381 51.7869 25.4172C53.3939 25.493 55.0175 25.719 56.5704 26.1189C57.1676 26.2727 57.7655 26.4313 58.3216 26.6929C59.2591 26.0704 60.1607 25.3696 61.0356 24.67C61.1569 24.573 61.2749 24.4705 61.393 24.3678C61.5499 24.2315 61.7068 24.0951 61.8712 23.972C61.9545 23.9096 62.058 23.8533 62.1632 23.8348C62.6345 23.7518 63.2034 24.0342 63.5756 24.2872C64.5046 24.9188 65.0636 25.9639 65.249 27.0159Z"/>
</mask>
<path d="M65.249 27.0159C65.2637 27.2969 65.2608 27.5055 65.1681 27.7743C64.9005 28.0498 64.5083 28.2787 64.1414 28.4929C64.0157 28.5662 63.893 28.6378 63.7793 28.709C63.2741 29.0253 62.766 29.3374 62.2579 29.6496L62.2577 29.6498C61.748 29.9629 61.2383 30.276 60.7316 30.5933C60.3406 33.6129 59.3592 36.6336 57.6067 39.1763C56.2088 41.0963 53.2243 44.028 48.8386 45.7729L48.8084 45.7839L48.8083 45.7839C48.1937 46.0081 47.5806 46.2316 46.9476 46.4129C44.6155 47.0808 42.1335 47.316 39.7068 47.3599L39.7044 47.3633C37.3082 47.3743 34.9222 47.1304 32.6886 46.7194C32.5462 46.6867 32.4024 46.6579 32.2589 46.6291C32.1326 46.6038 32.0065 46.5785 31.8818 46.5507C31.3113 46.4234 30.7409 46.2829 30.1768 46.1322C27.9348 45.5334 25.7845 44.697 23.7328 43.6514C22.0275 42.7823 20.3697 41.7937 18.8338 40.6735C17.4124 39.637 16.0783 38.4606 14.8474 37.2247C11.3946 33.758 8.7507 29.7036 7.29748 25.1184C6.51689 22.7827 6.18047 20.0651 6.62867 17.6411C6.86588 16.3581 7.40626 14.7965 8.58708 14.0213C9.29118 13.5591 10.2447 13.1953 11.0948 13.0881C11.369 13.0535 11.6833 13.0407 11.9493 13.1199C12.2871 13.2204 12.6146 13.4212 12.916 13.6061C12.9471 13.6252 12.978 13.6441 13.0085 13.6627C14.0137 14.2753 14.9167 14.9672 15.8045 15.7242C16.5876 16.3918 17.3476 17.0833 18.1078 17.7749L18.108 17.775C18.8337 18.4353 19.5595 19.0956 20.3057 19.7354C21.6093 20.8535 22.9903 21.9388 24.4527 22.8653C26.8065 24.3565 29.4084 25.5089 32.1344 26.2258C33.9284 26.7469 38.0905 27.5241 41.7304 26.5989C44.3989 25.9206 47.1315 25.5244 49.4766 25.3995C50.2468 25.3884 51.0171 25.381 51.7869 25.4172C53.3939 25.493 55.0175 25.719 56.5704 26.1189C57.1676 26.2727 57.7655 26.4313 58.3216 26.6929C59.2591 26.0704 60.1607 25.3696 61.0356 24.67C61.1569 24.573 61.2749 24.4705 61.393 24.3678C61.5499 24.2315 61.7068 24.0951 61.8712 23.972C61.9545 23.9096 62.058 23.8533 62.1632 23.8348C62.6345 23.7518 63.2034 24.0342 63.5756 24.2872C64.5046 24.9188 65.0636 25.9639 65.249 27.0159Z" fill="white"/>
<path d="M65.1681 27.7743L67.32 29.8646L67.786 29.3849L68.0041 28.7526L65.1681 27.7743ZM65.249 27.0159L68.2449 26.8587L68.2353 26.6757L68.2034 26.4951L65.249 27.0159ZM64.1414 28.4929L65.6537 31.0838L65.6537 31.0838L64.1414 28.4929ZM63.7793 28.709L62.1878 26.166L62.1876 26.1661L63.7793 28.709ZM62.2579 29.6496L63.8082 32.218L63.8183 32.2119L63.8284 32.2057L62.2579 29.6496ZM62.2577 29.6498L60.7074 27.0814L60.6972 27.0875L60.6872 27.0937L62.2577 29.6498ZM60.7316 30.5933L59.1396 28.0505L57.9384 28.8026L57.7564 30.2081L60.7316 30.5933ZM57.6067 39.1763L60.032 40.9421L60.0549 40.9107L60.0769 40.8787L57.6067 39.1763ZM48.8386 45.7729L49.8661 48.5915L49.9071 48.5765L49.9476 48.5604L48.8386 45.7729ZM48.8084 45.7839L47.7809 42.9653L47.7682 42.97L48.8084 45.7839ZM48.8083 45.7839L49.836 48.6025L49.8486 48.5978L48.8083 45.7839ZM46.9476 46.4129L47.7735 49.297L47.7735 49.2969L46.9476 46.4129ZM39.7068 47.3599L39.6524 44.3604L38.1358 44.3879L37.2589 45.6256L39.7068 47.3599ZM39.7044 47.3633L39.7183 50.3632L41.2607 50.3561L42.1523 49.0976L39.7044 47.3633ZM32.6886 46.7194L32.017 49.6432L32.0811 49.658L32.1458 49.6699L32.6886 46.7194ZM32.2589 46.6291L32.8482 43.6876L32.8482 43.6876L32.2589 46.6291ZM31.8818 46.5507L32.5353 43.6228L32.5352 43.6227L31.8818 46.5507ZM30.1768 46.1322L29.4027 49.0306L29.4027 49.0306L30.1768 46.1322ZM23.7328 43.6514L25.095 40.9785L25.095 40.9785L23.7328 43.6514ZM18.8338 40.6735L20.6016 38.2496L20.6015 38.2496L18.8338 40.6735ZM14.8474 37.2247L16.973 35.1077L16.973 35.1077L14.8474 37.2247ZM7.29748 25.1184L10.1573 24.212L10.1502 24.1897L10.1428 24.1675L7.29748 25.1184ZM6.62867 17.6411L9.57866 18.1866L9.57867 18.1865L6.62867 17.6411ZM8.58708 14.0213L10.2335 16.5292L10.2335 16.5292L8.58708 14.0213ZM11.0948 13.0881L10.7198 10.1116L10.7195 10.1117L11.0948 13.0881ZM11.9493 13.1199L12.8051 10.2445L12.8047 10.2444L11.9493 13.1199ZM12.916 13.6061L11.3476 16.1634L11.3476 16.1635L12.916 13.6061ZM13.0085 13.6627L11.4471 16.2244L11.4474 16.2245L13.0085 13.6627ZM15.8045 15.7242L13.8581 18.0071L13.8582 18.0071L15.8045 15.7242ZM18.1078 17.7749L20.1348 15.5632L20.1266 15.5558L18.1078 17.7749ZM18.108 17.775L16.081 19.9867L16.0891 19.9941L18.108 17.775ZM20.3057 19.7354L22.2587 17.4582L22.2585 17.4581L20.3057 19.7354ZM24.4527 22.8653L22.8472 25.3995L22.8472 25.3996L24.4527 22.8653ZM32.1344 26.2258L32.9713 23.3449L32.9345 23.3342L32.8974 23.3244L32.1344 26.2258ZM41.7304 26.5989L40.9914 23.6913L40.9914 23.6913L41.7304 26.5989ZM49.4766 25.3995L49.4335 22.3998L49.3752 22.4006L49.317 22.4037L49.4766 25.3995ZM51.7869 25.4172L51.9281 22.4205L51.9281 22.4205L51.7869 25.4172ZM56.5704 26.1189L57.3186 23.2137L57.3185 23.2137L56.5704 26.1189ZM58.3216 26.6929L57.045 29.4077L58.5738 30.1266L59.9812 29.1921L58.3216 26.6929ZM61.0356 24.67L62.9092 27.013L62.9093 27.0129L61.0356 24.67ZM61.393 24.3678L63.3608 26.6323L63.3608 26.6323L61.393 24.3678ZM61.8712 23.972L60.0732 21.5705L60.0724 21.5711L61.8712 23.972ZM62.1632 23.8348L62.6827 26.7895L62.6839 26.7893L62.1632 23.8348ZM63.5756 24.2872L65.2623 21.8063L65.2623 21.8063L63.5756 24.2872ZM68.0041 28.7526C68.2838 27.9417 68.2669 27.278 68.2449 26.8587L62.2531 27.173C62.2587 27.2797 62.252 27.2336 62.26 27.1405C62.2646 27.0875 62.2731 27.026 62.2871 26.9601C62.3009 26.8946 62.3172 26.839 62.332 26.7961L68.0041 28.7526ZM65.6537 31.0838C65.9205 30.9281 66.7096 30.493 67.32 29.8646L63.0161 25.6841C63.0377 25.6619 63.0547 25.6461 63.0654 25.6365C63.0762 25.627 63.0822 25.6222 63.0823 25.6221C63.0824 25.622 63.0781 25.6255 63.0683 25.6325C63.0585 25.6395 63.0447 25.6492 63.026 25.6617C62.9369 25.7212 62.8267 25.7866 62.629 25.902L65.6537 31.0838ZM65.3709 31.252C65.4382 31.2099 65.5195 31.1622 65.6537 31.0838L62.629 25.902C62.512 25.9703 62.3479 26.0658 62.1878 26.166L65.3709 31.252ZM63.8284 32.2057C64.3347 31.8946 64.8535 31.5759 65.3711 31.2519L62.1876 26.1661C61.6947 26.4746 61.1973 26.7803 60.6875 27.0935L63.8284 32.2057ZM63.8079 32.2182L63.8082 32.218L60.7076 27.0812L60.7074 27.0814L63.8079 32.2182ZM62.3235 33.1361C62.8178 32.8267 63.3167 32.5201 63.8281 32.2059L60.6872 27.0937C60.1793 27.4057 59.6589 27.7254 59.1396 28.0505L62.3235 33.1361ZM60.0769 40.8787C62.1574 37.86 63.269 34.3594 63.7067 30.9785L57.7564 30.2081C57.4122 32.8664 56.561 35.4071 55.1366 37.4739L60.0769 40.8787ZM49.9476 48.5604C54.9387 46.5746 58.3544 43.2462 60.032 40.9421L55.1815 37.4105C54.0632 38.9465 51.5099 41.4814 47.7296 42.9854L49.9476 48.5604ZM49.8359 48.6025L49.8661 48.5915L47.8111 42.9544L47.7809 42.9654L49.8359 48.6025ZM49.8486 48.5978L49.8487 48.5978L47.7682 42.97L47.7681 42.9701L49.8486 48.5978ZM47.7735 49.2969C48.5254 49.0816 49.2374 48.8207 49.836 48.6024L47.7806 42.9655C47.15 43.1954 46.6358 43.3816 46.1216 43.5289L47.7735 49.2969ZM39.7611 50.3594C42.3263 50.313 45.0948 50.0641 47.7735 49.297L46.1216 43.5288C44.1361 44.0975 41.9407 44.319 39.6524 44.3604L39.7611 50.3594ZM42.1523 49.0976L42.1547 49.0942L37.2589 45.6256L37.2565 45.6289L42.1523 49.0976ZM32.1458 49.6699C34.5407 50.1105 37.114 50.3752 39.7183 50.3632L39.6906 44.3633C37.5025 44.3734 35.3037 44.1502 33.2315 43.7689L32.1458 49.6699ZM31.6695 49.5706C31.82 49.6008 31.9224 49.6215 32.017 49.6432L33.3603 43.7956C33.17 43.7518 32.9848 43.7149 32.8482 43.6876L31.6695 49.5706ZM31.2283 49.4787C31.3903 49.5148 31.5486 49.5464 31.6695 49.5706L32.8482 43.6876C32.7165 43.6612 32.6226 43.6422 32.5353 43.6228L31.2283 49.4787ZM29.4027 49.0306C30.0043 49.1913 30.6151 49.3418 31.2284 49.4787L32.5352 43.6227C32.0076 43.505 31.4774 43.3744 30.9508 43.2338L29.4027 49.0306ZM22.3706 46.3243C24.6019 47.4614 26.9488 48.3752 29.4027 49.0306L30.9509 43.2338C28.9208 42.6916 26.9672 41.9326 25.095 40.9785L22.3706 46.3243ZM17.0661 43.0974C18.7511 44.3262 20.5486 45.3957 22.3707 46.3243L25.095 40.9785C23.5064 40.1689 21.9884 39.2611 20.6016 38.2496L17.0661 43.0974ZM12.7218 39.3418C14.0436 40.6689 15.4964 41.9527 17.0662 43.0974L20.6015 38.2496C19.3285 37.3212 18.113 36.2523 16.973 35.1077L12.7218 39.3418ZM4.43768 26.0248C6.05661 31.1329 8.98409 35.589 12.7218 39.3418L16.973 35.1077C13.8051 31.927 11.4448 28.2744 10.1573 24.212L4.43768 26.0248ZM3.67867 17.0957C3.11792 20.1284 3.54982 23.3693 4.45218 26.0693L10.1428 24.1675C9.48396 22.1961 9.24302 20.0018 9.57866 18.1866L3.67867 17.0957ZM6.94069 11.5134C4.65917 13.0112 3.9393 15.686 3.67866 17.0957L9.57867 18.1865C9.66664 17.7107 9.79594 17.2762 9.9562 16.9439C10.1195 16.6053 10.2404 16.5246 10.2335 16.5292L6.94069 11.5134ZM10.7195 10.1117C9.39394 10.2788 8.00862 10.8123 6.94068 11.5134L10.2335 16.5292C10.5738 16.3058 11.0954 16.1118 11.47 16.0645L10.7195 10.1117ZM12.8047 10.2444C11.9229 9.98209 11.0988 10.0639 10.7198 10.1116L11.4697 16.0646C11.519 16.0584 11.5166 16.0616 11.4765 16.061C11.443 16.0604 11.2997 16.0565 11.094 15.9953L12.8047 10.2444ZM14.4845 11.0488C14.2565 10.909 13.5886 10.4777 12.8051 10.2445L11.0935 15.9952C11.004 15.9685 10.9775 15.9481 11.0395 15.9811C11.0666 15.9955 11.1039 16.0163 11.1569 16.0478C11.2119 16.0803 11.2691 16.1153 11.3476 16.1634L14.4845 11.0488ZM14.5699 11.1011C14.5435 11.085 14.5162 11.0682 14.4845 11.0488L11.3476 16.1635C11.3781 16.1822 11.4125 16.2032 11.4471 16.2244L14.5699 11.1011ZM17.7509 13.4413C16.786 12.6187 15.752 11.8215 14.5696 11.1009L11.4474 16.2245C12.2753 16.7291 13.0473 17.3158 13.8581 18.0071L17.7509 13.4413ZM20.1266 15.5558C19.3724 14.8696 18.5768 14.1454 17.7508 13.4412L13.8582 18.0071C14.5984 18.6382 15.3228 19.2969 16.0889 19.9939L20.1266 15.5558ZM20.135 15.5634L20.1348 15.5632L16.0808 19.9865L16.081 19.9866L20.135 15.5634ZM22.2585 17.4581C21.5514 16.8517 20.8579 16.2211 20.1268 15.556L16.0891 19.9941C16.8095 20.6494 17.5677 21.3396 18.3528 22.0128L22.2585 17.4581ZM26.0582 20.3311C24.7623 19.5101 23.502 18.5245 22.2587 17.4582L18.3527 22.0127C19.7167 23.1825 21.2183 24.3676 22.8472 25.3995L26.0582 20.3311ZM32.8974 23.3244C30.4796 22.6886 28.1607 21.663 26.0582 20.3311L22.8472 25.3996C25.4523 27.0499 28.3373 28.3293 31.3715 29.1271L32.8974 23.3244ZM40.9914 23.6913C38.1041 24.4252 34.5487 23.8031 32.9713 23.3449L31.2976 29.1067C33.3081 29.6907 38.0768 30.623 42.4695 29.5064L40.9914 23.6913ZM49.317 22.4037C46.7761 22.5391 43.8495 22.9649 40.9914 23.6913L42.4695 29.5064C44.9483 28.8763 47.4868 28.5097 49.6362 28.3952L49.317 22.4037ZM51.9281 22.4205C51.0559 22.3795 50.2021 22.3887 49.4335 22.3998L49.5197 28.3992C50.2916 28.3881 50.9783 28.3824 51.6457 28.4139L51.9281 22.4205ZM57.3185 23.2137C55.5452 22.7571 53.7163 22.5048 51.9281 22.4205L51.6457 28.4139C53.0715 28.4811 54.4898 28.681 55.8224 29.0241L57.3185 23.2137ZM59.5983 23.9781C58.7508 23.5795 57.8892 23.3606 57.3186 23.2137L55.8223 29.0241C56.4459 29.1847 56.7802 29.2831 57.045 29.4077L59.5983 23.9781ZM59.1621 22.3269C58.3001 23.0162 57.4838 23.6481 56.6621 24.1937L59.9812 29.1921C61.0343 28.4927 62.0213 27.723 62.9092 27.013L59.1621 22.3269ZM59.4252 22.1034C59.2992 22.2129 59.2273 22.2748 59.162 22.327L62.9093 27.0129C63.0864 26.8713 63.2507 26.728 63.3608 26.6323L59.4252 22.1034ZM60.0724 21.5711C59.8063 21.7704 59.5676 21.9796 59.4252 22.1034L63.3608 26.6323C63.5321 26.4834 63.6073 26.4198 63.67 26.3729L60.0724 21.5711ZM61.6438 20.8801C60.9047 21.01 60.3652 21.3518 60.0732 21.5705L63.6692 26.3735C63.5855 26.4362 63.4724 26.5108 63.3272 26.5818C63.1854 26.6512 62.9673 26.7394 62.6827 26.7895L61.6438 20.8801ZM65.2623 21.8063C64.9369 21.5851 64.4847 21.3206 63.9498 21.1222C63.4522 20.9377 62.6143 20.7091 61.6426 20.8803L62.6839 26.7893C62.4174 26.8362 62.208 26.82 62.0868 26.8019C61.9649 26.7837 61.8884 26.757 61.8634 26.7477C61.8238 26.7331 61.842 26.7363 61.8888 26.7681L65.2623 21.8063ZM68.2034 26.4951C67.9089 24.8241 66.9977 22.9862 65.2623 21.8063L61.8888 26.7681C61.9458 26.8068 62.0269 26.8824 62.1091 27.0213C62.193 27.1633 62.2604 27.3431 62.2945 27.5367L68.2034 26.4951Z" fill="white" mask="url(#path-1-outside-1_418_972)"/>
<path d="M65.249 27.0159C65.2637 27.2969 65.2608 27.5055 65.1681 27.7743C64.9005 28.0498 64.5083 28.2787 64.1414 28.4929C64.0157 28.5662 63.893 28.6378 63.7793 28.709C63.2741 29.0253 62.766 29.3374 62.2579 29.6496L62.2577 29.6498C61.748 29.9629 61.2383 30.276 60.7316 30.5933C60.3406 33.6129 59.3592 36.6336 57.6067 39.1763C56.2088 41.0963 53.2243 44.028 48.8386 45.7729L48.8084 45.7839L48.8083 45.7839C48.1937 46.0081 47.5806 46.2316 46.9476 46.4129C44.6155 47.0808 42.1335 47.316 39.7068 47.3599L39.7044 47.3633C37.3082 47.3743 34.9222 47.1304 32.6886 46.7194C32.5462 46.6867 32.4024 46.6579 32.2589 46.6291C32.1326 46.6038 32.0065 46.5785 31.8818 46.5507C31.3113 46.4234 30.7409 46.2829 30.1768 46.1322C27.9348 45.5334 25.7845 44.697 23.7328 43.6514C22.0275 42.7823 20.3697 41.7937 18.8338 40.6735C17.4124 39.637 16.0783 38.4606 14.8474 37.2247C11.3946 33.758 8.7507 29.7036 7.29748 25.1184C6.51689 22.7827 6.18047 20.0651 6.62867 17.6411C6.86588 16.3581 7.40626 14.7965 8.58708 14.0213C9.29118 13.5591 10.2447 13.1953 11.0948 13.0881C11.369 13.0535 11.6833 13.0407 11.9493 13.1199C12.2871 13.2204 12.6146 13.4212 12.916 13.6061C12.9471 13.6252 12.978 13.6441 13.0085 13.6627C14.0137 14.2753 14.9167 14.9672 15.8045 15.7242C16.5876 16.3918 17.3476 17.0833 18.1078 17.7749L18.108 17.775C18.8337 18.4353 19.5595 19.0956 20.3057 19.7354C21.6093 20.8535 22.9903 21.9388 24.4527 22.8653C26.8065 24.3565 29.4084 25.5089 32.1344 26.2258C33.9284 26.7469 38.0905 27.5241 41.7304 26.5989C44.3989 25.9206 47.1315 25.5244 49.4766 25.3995C50.2468 25.3884 51.0171 25.381 51.7869 25.4172C53.3939 25.493 55.0175 25.719 56.5704 26.1189C57.1676 26.2727 57.7655 26.4313 58.3216 26.6929C59.2591 26.0704 60.1607 25.3696 61.0356 24.67C61.1569 24.573 61.2749 24.4705 61.393 24.3678C61.5499 24.2315 61.7068 24.0951 61.8712 23.972C61.9545 23.9096 62.058 23.8533 62.1632 23.8348C62.6345 23.7518 63.2034 24.0342 63.5756 24.2872C64.5046 24.9188 65.0636 25.9639 65.249 27.0159Z" fill="white"/>
<path d="M61.8037 24.7899L61.898 25.1761C61.6908 25.5382 61.4306 25.8723 61.1507 26.1868C61.0594 26.114 60.9741 26.0473 60.8717 25.9891C60.7878 25.9415 60.7895 25.9223 60.7534 25.8352C60.7008 25.8557 60.6835 25.8682 60.643 25.9036L60.5168 25.9229L61.8037 24.7899Z" fill="url(#paint0_linear_418_972)"/>
<path d="M61.8982 25.1762L62.1102 25.7822C61.7267 26.158 61.3246 26.5186 60.9138 26.8673C60.5761 27.1538 60.1931 27.4375 59.9037 27.7685L59.8786 27.8264L59.8294 27.7785C59.7428 27.8053 59.7059 27.8397 59.6431 27.8981C59.6091 27.9296 59.625 27.9174 59.5808 27.941L59.5596 28.0342L58.9433 28.3943C58.8579 28.3139 58.8669 28.2134 58.8147 28.11C59.0069 28.0395 59.1936 27.9006 59.3626 27.7893C60.0412 27.3421 60.623 26.7888 61.1508 26.1869C61.4308 25.8725 61.691 25.5384 61.8982 25.1762Z" fill="#F8C20C"/>
<path d="M12.0527 14.0195C12.0065 14.0665 11.9451 14.1067 11.8898 14.143C11.2243 14.5797 10.4293 14.7948 9.64389 14.9228C9.34792 14.9711 8.94883 15.0198 8.65238 14.9621L8.74056 14.8485C9.37071 14.2482 10.3483 13.87 11.229 13.7404C11.5922 13.6869 11.7744 13.8273 12.0527 14.0195Z" fill="#BE8F24"/>
<path d="M61.1514 26.1866C60.6236 26.7885 60.0418 27.3418 59.3632 27.789C59.1942 27.9004 59.0075 28.0392 58.8152 28.1097L58.7793 28.0772C58.6575 27.9556 58.5152 27.8846 58.3613 27.8057C58.3596 27.6659 58.3725 27.5752 58.4426 27.4509L58.4577 27.425L58.4179 27.3708C58.7263 27.2429 59.0042 27.034 59.2722 26.8434C59.6937 26.5434 60.1021 26.2299 60.5175 25.9227L60.6438 25.9034C60.6842 25.8681 60.7015 25.8556 60.7541 25.8351C60.7902 25.9222 60.7886 25.9413 60.8724 25.989C60.9748 26.0472 61.0601 26.1139 61.1514 26.1866Z" fill="#FCF092"/>
<path d="M64.8203 26.9616C64.8267 27.1127 64.857 27.2868 64.7423 27.4077C64.6689 27.4849 64.5809 27.5471 64.4891 27.603C63.6215 27.2732 62.7294 26.4451 62.3609 25.6256C62.2172 25.3059 62.1318 24.9906 62.075 24.6476C62.1784 24.5231 62.2781 24.3728 62.458 24.3522C62.6203 24.3337 62.7658 24.3661 62.9077 24.4388L62.9078 24.4844L62.9654 24.5264L62.9123 24.53C62.8563 24.5349 62.8354 24.5444 62.7855 24.5577L62.7038 24.5732L62.6432 24.6276C62.6059 24.7491 62.6086 24.8706 62.661 24.9883C62.7073 25.0926 62.7107 25.2011 62.7488 25.307C62.8156 25.4929 62.8726 25.6452 62.9997 25.8053L63.0343 25.8481C63.2376 26.1042 63.4791 26.3515 63.7655 26.5235C63.9485 26.6814 64.1473 26.8092 64.3577 26.9314L64.4738 26.9025C64.601 26.8367 64.541 26.2898 64.5683 26.1396L64.5746 26.1058C64.7023 26.3816 64.7737 26.6645 64.8203 26.9616Z" fill="#BE8F24"/>
<path d="M64.5742 26.1055L64.5678 26.1394C64.5406 26.2896 64.6006 26.8364 64.4733 26.9023L64.3572 26.9311C64.1468 26.809 63.948 26.6812 63.7651 26.5232C63.4786 26.3512 63.2371 26.1039 63.0338 25.8479L62.9993 25.8051C62.8721 25.645 62.8151 25.4927 62.7484 25.3068C62.7103 25.2009 62.7068 25.0924 62.6605 24.9881C62.6081 24.8703 62.6054 24.7488 62.6428 24.6274L62.7033 24.573L62.785 24.5575C62.835 24.5442 62.8558 24.5347 62.9118 24.5298L62.9649 24.5261L62.9073 24.4842L62.9072 24.4385L62.942 24.4499C63.7072 24.7256 64.2391 25.4278 64.5742 26.1055Z" fill="#BE8F24"/>
<path d="M63.454 27.4257C63.2209 27.602 62.9558 27.7098 62.7015 27.8526C62.5511 27.9371 62.2956 28.1079 62.131 28.1444C61.6431 28.0123 61.1501 27.8725 60.8911 27.4153L60.7988 27.2442L60.7778 27.2138L62.2622 26.1181C62.6253 26.5939 62.9987 27.0262 63.454 27.4257Z" fill="#BE8F24"/>
<ellipse cx="3.70397" cy="9.57856" rx="3.70397" ry="9.57856" transform="matrix(0.224484 0.974478 -0.978968 0.204016 52.5029 24.9461)" fill="#FFD500"/>
<path d="M58.4177 27.3708L58.4575 27.4249L58.4424 27.4509C58.3723 27.5751 58.3594 27.6658 58.3611 27.8056L58.1958 27.7445C56.8351 27.236 55.3052 27.0634 53.8506 27.0806L50.3838 26.8807L42.2245 27.0668C49.2913 25.5561 53.3986 26.204 55.1656 26.5426C56.2766 26.7555 57.3357 27.061 58.4177 27.3708Z" fill="#FDFDFD"/>
<path d="M63.4542 27.4258L64.0252 27.8046C63.2848 28.2408 62.5618 28.7 61.8286 29.1466C61.2247 29.5145 60.5453 29.8792 60.0095 30.3314C59.9516 30.8139 59.9029 31.2886 59.8105 31.7674C59.0122 35.9053 56.9422 39.6589 53.4539 42.3104C52.4132 43.1014 51.2936 43.8114 50.0918 44.3621C47.5034 45.5481 44.5964 46.1363 41.7447 46.3473C39.8326 46.4887 37.9032 46.486 35.9951 46.2815C32.3209 45.8878 28.6162 44.893 25.2844 43.3599C20.6754 41.2393 16.6034 38.0363 13.4227 34.2312C11.0052 31.3391 9.08417 27.8841 8.07737 24.3118C7.52649 22.3573 7.24813 20.3887 7.49568 18.3669C7.63035 17.2667 7.97494 16.298 8.4791 15.3066C8.95065 15.3604 9.41264 15.3652 9.88443 15.3074C10.8278 15.1414 11.6687 14.872 12.4545 14.3324C12.6194 14.3305 12.8685 14.528 13.0098 14.6194C13.5805 14.9883 14.1068 15.4245 14.6304 15.8509C16.0854 17.0358 17.4235 18.3393 18.8248 19.5801C19.9127 20.5434 21.0267 21.4929 22.2024 22.3595C25.5428 24.8215 29.4307 26.6036 33.6098 27.2741C34.2902 27.3833 34.968 27.493 35.6559 27.5515C36.4588 27.6197 37.2653 27.6192 38.0703 27.5915C38.1777 27.5597 38.3239 27.5633 38.4388 27.5522C38.7202 27.5252 39.0039 27.5027 39.2808 27.4458C39.3876 27.4239 39.502 27.5036 39.5946 27.4466C39.6872 27.3895 39.7918 27.415 39.7918 27.415C39.9508 27.4376 40.0326 27.3589 40.1862 27.3273C40.4987 27.2629 41.0867 27.3264 41.4028 27.3499C41.2895 27.4708 41.0909 27.6351 41.0234 27.7785C40.908 27.8784 40.5686 27.7677 40.4787 27.8886C40.2394 28.2103 40.0281 28.542 39.9408 28.9318L39.8793 29.2721C39.8333 29.8451 39.9769 30.2884 40.3656 30.7248C40.9901 31.4262 42.0075 31.7888 42.9529 31.8569C44.1482 31.943 45.3974 31.6346 46.309 30.8711C47.0139 30.2808 47.4113 29.5428 47.4559 28.6478C47.4984 27.7941 46.9895 27.6999 46.4 27.092C47.33 27.1168 48.3335 27.116 49.2605 27.0879C49.7599 27.8856 50.0818 28.4515 49.9314 29.396L49.9234 29.4444C49.898 29.6109 49.8415 29.7376 49.7682 29.8887C50.2027 29.4843 50.5303 28.9464 50.6802 28.3858L50.6965 28.326C50.8297 27.8101 50.6664 27.3219 50.3837 26.8814L53.8505 27.0814C55.3051 27.0642 56.835 27.2368 58.1957 27.7453L58.361 27.8064C58.5149 27.8853 58.6572 27.9563 58.779 28.0779L58.8149 28.1104C58.8671 28.2138 58.8581 28.3144 58.9435 28.3947L59.5598 28.0346L59.581 27.9414C59.6252 27.9179 59.6094 27.93 59.6433 27.8985C59.7061 27.8402 59.743 27.8057 59.8297 27.7789L59.8788 27.8268L59.9039 27.7689C60.225 27.6172 60.4823 27.401 60.778 27.2139L60.7989 27.2443L60.8913 27.4154C61.1503 27.8726 61.6433 28.0124 62.1312 28.1445C62.2957 28.108 62.5513 27.9371 62.7017 27.8527C62.956 27.7099 63.221 27.6021 63.4542 27.4258Z" fill="#FFD500"/>
<path d="M58.1958 27.7451C57.9284 27.7561 57.636 27.6486 57.3687 27.6074C56.7029 27.5049 56.0311 27.4118 55.3607 27.3427C54.6502 27.2694 53.9332 27.2525 53.219 27.2725C52.8509 27.2828 52.4843 27.323 52.1159 27.3283L53.8506 27.0812C55.3052 27.064 56.8351 27.2366 58.1958 27.7451Z" fill="#BE8F24"/>
<path d="M56.5339 32.1414C56.5421 32.2168 56.5434 32.3 56.5302 32.3748C56.4932 32.584 56.3364 32.7995 56.1471 32.9089C56.0146 32.9855 55.8517 33.0119 55.701 32.9701C55.553 32.929 55.4742 32.8116 55.4017 32.6918C55.3975 32.6318 55.3992 32.5737 55.4088 32.5143C55.4431 32.3016 55.5875 32.1066 55.7748 31.9881C55.8956 31.9118 56.0729 31.8366 56.2211 31.8718C56.3693 31.9069 56.4548 32.0276 56.5339 32.1414Z" fill="#FDFDFD"/>
<path d="M55.0839 28.5262L55.0894 28.6569C55.0913 28.8365 55.0165 29.0276 54.8741 29.1496C54.7185 29.2831 54.4618 29.3834 54.2506 29.3587C54.0608 29.3363 53.971 29.2436 53.8589 29.1056C53.8498 29.0451 53.8395 28.9816 53.8488 28.9206C53.8787 28.7243 54.0427 28.535 54.2081 28.4244C54.3671 28.3179 54.5582 28.2566 54.7534 28.2952C54.9122 28.3266 54.995 28.4025 55.0839 28.5262Z" fill="#FDFDFD"/>
<path d="M59.5601 28.0344C59.5047 28.1448 59.3857 28.2093 59.2849 28.2808C59.0476 28.4492 58.805 28.61 58.5603 28.7684C56.3075 30.2268 53.9742 31.4704 51.397 32.3387C50.3978 32.6753 49.3766 32.9507 48.3534 33.2131C48.1171 33.2737 47.7827 33.3992 47.538 33.3941C47.8558 33.2562 48.2567 33.177 48.5945 33.0791C49.4329 32.836 50.304 32.5927 51.0967 32.2322C51.4498 32.1402 51.7968 31.965 52.1348 31.8303C53.9091 31.1233 55.5779 30.2842 57.2399 29.368C57.619 29.159 57.9903 28.9388 58.3667 28.7261C58.56 28.6168 58.7605 28.5189 58.9438 28.3945L59.5601 28.0344Z" fill="#BE8F24"/>
<path d="M58.9438 28.3942C58.7605 28.5187 58.5601 28.6165 58.3668 28.7258C57.9903 28.9386 57.6191 29.1587 57.24 29.3677C55.578 30.2839 53.9092 31.123 52.1349 31.8301C51.7969 31.9647 51.4499 32.14 51.0968 32.2319C51.219 31.9651 53.7796 30.7313 54.2318 30.4933C55.0035 30.0872 55.7488 29.6376 56.5183 29.2278C57.2642 28.8307 58.0333 28.4737 58.7792 28.0774L58.8151 28.1099C58.8674 28.2133 58.8584 28.3139 58.9438 28.3942Z" fill="#BE8F24"/>
<path d="M27.1582 27.5711C27.1821 27.3824 27.2333 27.2897 27.3938 27.1731C27.5369 27.0692 27.7039 27.0193 27.8839 27.0504C28.2165 27.1077 28.5617 27.3003 28.8776 27.4209C29.34 27.5973 29.857 27.7288 30.2889 27.9646C30.4575 28.0567 30.6195 28.177 30.7247 28.3345C30.7738 28.4081 30.7657 28.4527 30.7687 28.5377C30.7128 28.6634 30.6444 28.7471 30.5049 28.7955C30.0527 28.9523 29.3877 28.6735 28.9523 28.534C28.532 28.3993 28.0884 28.2666 27.6937 28.0717C27.4642 27.9584 27.3248 27.8379 27.1743 27.6391L27.1582 27.5711Z" fill="#FDFDFD"/>
<path d="M31.4949 39.3949C31.7671 39.4803 32.0396 39.5653 32.3128 39.6481C32.4573 39.6919 32.6216 39.7235 32.7562 39.7887C31.8285 39.7071 30.8995 39.3351 30.0311 39.0347C28.7381 38.5876 27.4971 38.0882 26.2883 37.4582C23.5925 36.0531 21.1386 34.1643 18.9548 32.1201C18.2424 31.4533 17.5446 30.7851 16.9066 30.0522L16.8379 29.9654C17.003 30.0564 17.1434 30.2216 17.2768 30.3515C17.5097 30.5781 17.7422 30.8055 17.9829 31.0247C18.5172 31.5117 19.0729 31.9697 19.631 32.4311C21.1578 33.6932 22.7291 34.8471 24.4072 35.9207C26.2021 37.0689 28.0859 38.1033 30.0954 38.8738C30.5529 39.0492 31.0204 39.2704 31.4949 39.3949Z" fill="#BE8F24"/>
<path d="M17.6277 22.3359C17.6619 22.4775 17.6633 22.5903 17.6473 22.7345C17.4952 22.6736 17.3417 22.621 17.2108 22.5234C17.2544 22.4215 17.2457 22.3663 17.2225 22.2598C17.3613 22.3067 17.4809 22.3272 17.6277 22.3359Z" fill="#FFD500"/>
<path d="M16.8377 29.965C16.7787 29.9356 16.7398 29.8808 16.6963 29.8333L16.7257 29.7869L16.8404 29.8892L16.9222 29.8865C17.223 30.0224 17.5333 30.32 17.8022 30.5156C18.7327 31.1922 19.6408 31.8906 20.5644 32.5752C22.8172 34.2448 25.1538 35.9032 27.6154 37.2826C28.4017 37.7232 29.1972 38.2031 30.012 38.5909C30.391 38.7712 30.7678 38.9531 31.1432 39.1402C31.2028 39.1699 31.3906 39.2407 31.4299 39.2833C31.4594 39.3151 31.4731 39.3575 31.4947 39.3946C31.0202 39.27 30.5527 39.0489 30.0952 38.8734C28.0857 38.1029 26.2019 37.0686 24.407 35.9203C22.729 34.8468 21.1576 33.6928 19.6308 32.4308C19.0727 31.9694 18.517 31.5113 17.9827 31.0244C17.742 30.8051 17.5095 30.5778 17.2766 30.3511C17.1432 30.2213 17.0028 30.056 16.8377 29.965Z" fill="#BE8F24"/>
<path d="M19.9081 23.0005C21.0015 23.1798 21.9904 23.9619 22.8298 24.6145C23.3612 25.0276 24.1226 25.6819 24.174 26.3858C24.185 26.5359 24.1457 26.6551 24.0343 26.7634C23.8917 26.9021 23.6957 26.9347 23.4999 26.9378C22.9733 26.9461 22.4568 26.7027 22.024 26.4386C21.3228 26.0108 20.7533 25.5099 20.1607 24.9597C19.7851 24.5204 19.2977 24.0015 19.3774 23.3951C19.3931 23.2758 19.4402 23.1772 19.5467 23.1076C19.6539 23.0375 19.7814 23.0132 19.9081 23.0005Z" fill="#FDFDFD"/>
<path d="M35.715 27.6079C37.7407 27.8801 41.4902 27.2558 43.1117 26.9096C43.462 26.6277 48.0226 26.0335 51.2321 26.4291C46.0706 26.7803 43.3445 28.785 38.5441 28.7293C33.7437 28.6736 33.1828 27.2676 35.715 27.6079Z" fill="#FDFDFD"/>
<path d="M38.0697 27.5915C38.0244 27.6285 37.9908 27.65 37.9312 27.6621C37.699 27.709 37.4542 27.6968 37.223 27.7478C37.0075 27.7952 36.8018 27.8766 36.5871 27.927C36.1142 28.038 35.6294 28.1029 35.1523 28.1955C34.7692 28.2697 34.3866 28.38 34.0006 28.4331C33.69 28.4758 33.3848 28.4694 33.0728 28.4474C32.8603 28.4322 32.6474 28.4062 32.4429 28.3475C32.0222 28.2268 31.6416 28.0085 31.2264 27.873C30.2955 27.5693 29.358 27.2844 28.4365 26.9548C28.0636 26.8213 27.6749 26.7034 27.3223 26.5262L27.3039 26.4999L27.3149 26.3189L27.2849 26.3073L27.222 26.4826L27.1253 26.701L26.2718 26.3006L26.3157 26.0889L26.3063 25.9691L26.2001 26.0513L25.1884 25.5851L25.27 25.0723C25.2056 25.2008 25.1472 25.3498 25.0542 25.4615C24.6071 25.1708 24.1392 24.9156 23.6979 24.6146C21.6512 23.2192 19.6812 21.6192 17.9169 19.9099C16.663 18.6951 15.5187 17.3833 14.2819 16.1526C14.0016 15.8738 12.5196 14.5291 12.4539 14.3324C12.6188 14.3304 12.8679 14.528 13.0093 14.6193C13.5799 14.9882 14.1062 15.4245 14.6298 15.8509C16.0848 17.0358 17.4229 18.3392 18.8242 19.5801C19.9121 20.5434 21.0261 21.4929 22.2018 22.3594C25.5422 24.8215 29.4301 26.6036 33.6093 27.2741C34.2896 27.3832 34.9674 27.493 35.6553 27.5514C36.4582 27.6196 37.2647 27.6191 38.0697 27.5915Z" fill="#FDFDFD"/>
<path d="M63.4538 27.4257L64.0247 27.8045C63.2844 28.2407 62.5614 28.6999 61.8282 29.1465C61.2243 29.5144 60.5449 29.8791 60.0091 30.3313C59.9512 30.8138 59.9025 31.2885 59.8101 31.7673C59.0118 35.9052 56.9418 39.6588 53.4535 42.3103C52.4128 43.1013 51.2932 43.8113 50.0913 44.362C47.503 45.548 44.596 46.1362 41.7443 46.3472C39.8322 46.4886 37.9028 46.4859 35.9947 46.2814C32.3204 45.8877 28.6158 44.8929 25.284 43.3599C20.675 41.2392 16.603 38.0362 13.4223 34.2312C11.0048 31.3391 9.08377 27.884 8.07697 24.3117C7.52609 22.3572 7.24773 20.3886 7.49528 18.3668C7.62995 17.2666 7.97454 16.2979 8.47869 15.3065C8.95025 15.3603 9.41224 15.3651 9.88403 15.3074C10.0416 17.7147 10.7658 20.0313 11.8076 22.2214C12.5214 23.7219 13.3766 25.1589 14.4178 26.4772L14.3977 26.5176C14.0411 26.1126 13.6723 25.7184 13.3299 25.3021C11.9156 23.5827 10.6019 21.6158 9.81096 19.5565C9.57753 18.9488 9.41332 18.3337 9.2523 17.7064C9.21453 18.3804 9.17565 19.0656 9.21313 19.74C9.3269 21.7888 9.95285 23.8415 10.8229 25.7113C13.6865 31.865 18.8428 36.8273 25.021 40.0387C26.2321 40.6682 27.4705 41.2683 28.7593 41.7404C30.0529 42.2143 31.369 42.6495 32.7098 42.9862C38.722 44.4956 45.3729 44.4522 51.1191 42.0273C52.4897 41.4489 53.7091 40.732 54.8373 39.7914C55.2787 39.4235 55.7221 39.0412 56.1057 38.6179C57.5059 37.0729 58.2463 35.1519 58.9187 33.2465C59.2506 32.306 59.4773 31.3441 59.8531 30.4168C59.8508 30.3621 59.8524 30.3285 59.8281 30.278L59.9148 30.1923L59.9088 30.099C59.7889 30.1456 59.824 30.2265 59.6755 30.2444C59.8262 30.0117 60.0797 29.8134 60.2703 29.6056C59.1886 30.156 58.682 31.4227 58.1008 32.3934C57.78 32.9294 57.4317 33.461 57.0734 33.9752C56.3025 35.0814 55.3637 36.0926 54.3491 37.0006C54.0279 37.2881 53.6908 37.6016 53.3167 37.8247L53.1597 37.3096C53.6649 36.9439 54.1296 36.48 54.557 36.0343C55.9637 34.5669 56.9858 32.8719 58.2221 31.2853C58.5683 30.8411 58.902 30.3227 59.3204 29.9405C60.1222 29.2079 61.1557 28.6413 62.1308 28.1444C62.2953 28.1079 62.5509 27.9371 62.7013 27.8526C62.9556 27.7098 63.2206 27.602 63.4538 27.4257Z" fill="#BE8F24"/>
<path d="M60.058 29.8184C60.1318 29.7473 60.2049 29.6769 60.2705 29.6053C59.4017 30.0473 58.9039 30.9515 58.4405 31.7932C58.3269 31.9995 58.2154 32.202 58.101 32.3931C57.7802 32.9291 57.4319 33.4607 57.0736 33.9749C56.3027 35.0811 55.3639 36.0923 54.3493 37.0003C54.3214 37.0253 54.2933 37.0505 54.2651 37.0759C53.9843 37.3281 53.6901 37.5923 53.3689 37.7927C53.3742 37.8301 53.3792 37.8677 53.384 37.9055C54.0547 37.4555 54.6754 36.918 55.2572 36.3698C56.4619 35.235 57.507 33.9883 58.3452 32.583C58.6017 32.1529 58.8415 31.7143 59.0762 31.2732C59.1077 31.214 59.1391 31.1541 59.1706 31.0938C59.3174 30.8132 59.4677 30.5258 59.6542 30.2727L59.6757 30.2441C59.7745 30.0915 59.9175 29.9537 60.058 29.8184Z" fill="#BE8F24"/>
<defs>
<linearGradient id="paint0_linear_418_972" x1="61.2512" y1="25.7668" x2="61.6158" y2="24.8476" gradientUnits="userSpaceOnUse">
<stop stop-color="#F8F6E1"/>
<stop offset="1" stop-color="white"/>
</linearGradient>
</defs>
</svg>
