<svg width="120" height="120" viewBox="0 0 120 120" fill="none" xmlns="http://www.w3.org/2000/svg">
<rect width="120" height="120" rx="60" fill="#FFD500"/>
<g clip-path="url(#clip0_217_3399)">
<path fill-rule="evenodd" clip-rule="evenodd" d="M54.7476 44.0232C55.5569 48.6709 56.4221 53.6404 58.7371 57.6686C61.4973 62.4713 66.0894 66.5061 70.2215 69.4856C72.2769 70.9677 74.1961 72.1729 75.6825 73.0688C76.248 73.4097 76.7474 73.7037 77.172 73.9537C77.3069 74.0331 77.4343 74.1081 77.5539 74.1788C78.0116 74.4492 78.4304 74.6987 78.6538 74.8711C79.3173 75.383 79.9329 76.246 80.3968 76.9876C80.7972 77.6277 81.1478 78.282 81.3913 78.7774L84.2406 80.6935C85.2189 81.3514 85.4849 82.6742 84.8371 83.6591L82.8557 86.6716C82.2684 87.5645 81.1143 87.8904 80.1467 87.4367L77.6887 86.2842C65.9022 85.3267 57.5633 81.3031 51.4562 75.675C50.9892 75.2445 50.9595 74.517 51.3899 74.05C51.8203 73.5829 52.5479 73.5532 53.0149 73.9837C58.7487 79.2678 66.6521 83.1181 78.0773 84.0078C78.2155 84.0186 78.3507 84.0543 78.4762 84.1132L81.0055 85.2991L82.8339 82.5192L79.8479 80.5112C79.6739 80.3942 79.5353 80.2319 79.4469 80.0418C79.2444 79.6064 78.876 78.8934 78.4469 78.2073C77.9956 77.4858 77.5617 76.9335 77.2489 76.6921C77.1673 76.6292 76.9057 76.4673 76.3839 76.1589C76.2688 76.091 76.1445 76.0178 76.0116 75.9396C75.5857 75.6888 75.0719 75.3863 74.4952 75.0387C72.9779 74.1241 71.0009 72.8832 68.8763 71.3512C64.6484 68.3026 59.745 64.0381 56.743 58.8147C54.2053 54.399 53.2624 48.9471 52.4607 44.3122C52.3126 43.4556 52.1692 42.6268 52.0216 41.8377C51.534 39.2324 51.0129 37.1043 50.2064 35.6161C49.4406 34.203 48.4967 33.4922 47.0895 33.4315C45.6999 33.3715 44.4197 34.1136 43.3101 35.7292C42.1918 37.3576 41.3482 39.7523 40.9023 42.6054C40.0105 48.3116 40.7663 55.472 43.5939 61.0723C43.8802 61.6393 43.6526 62.3309 43.0857 62.6172C42.5187 62.9034 41.8271 62.6759 41.5408 62.1089C38.4646 56.0164 37.6754 48.3575 38.6299 42.2502C39.1071 39.1966 40.0346 36.436 41.4142 34.4271C42.8026 32.4054 44.7472 31.0283 47.1886 31.1336C49.6122 31.2381 51.1887 32.6015 52.2285 34.5202C53.2276 36.3637 53.7976 38.8248 54.2823 41.4146C54.4418 42.2667 54.5937 43.1391 54.7476 44.0232Z" fill="#40016A"/>
<path fill-rule="evenodd" clip-rule="evenodd" d="M57.8882 73.298C58.3041 72.8179 59.0304 72.7659 59.5104 73.1817C61.4068 74.8244 64.0908 76.3823 68.0652 77.6173C68.6717 77.8057 69.0107 78.4502 68.8222 79.0567C68.6337 79.6632 67.9893 80.0021 67.3828 79.8137C63.1602 78.5016 60.1808 76.8054 58.0045 74.9202C57.5244 74.5043 57.4724 73.778 57.8882 73.298Z" fill="#40016A"/>
<path fill-rule="evenodd" clip-rule="evenodd" d="M47.6072 57.4745C51.4215 56.6006 55.7863 57.3811 58.6742 58.3519C59.2762 58.5543 59.6002 59.2064 59.3978 59.8084C59.1954 60.4104 58.5433 60.7344 57.9413 60.532C55.2642 59.632 51.3617 58.9739 48.1208 59.7164C46.5216 60.0828 45.1406 60.7762 44.121 61.8927C43.1093 63.0006 42.3683 64.6179 42.2039 66.9932C41.7782 73.1408 43.8221 77.0461 46.0505 79.3384C47.1773 80.4976 48.3612 81.2544 49.3219 81.6803C49.8038 81.894 50.2092 82.0154 50.5056 82.0688C50.6847 82.1011 50.7831 82.1014 50.8199 82.1009C50.9099 82.0474 51.0337 81.9216 51.1445 81.566C51.2832 81.1207 51.3475 80.4689 51.3322 79.5915C51.3115 78.3928 51.1543 77.0059 50.9814 75.4807C50.898 74.7455 50.8111 73.9782 50.734 73.1842C50.5056 70.8324 50.3729 68.2941 50.8469 66.1415C51.3324 63.9366 52.5005 61.9748 54.9472 61.1296C55.5476 60.9222 56.2023 61.2408 56.4097 61.8411C56.617 62.4414 56.2985 63.0962 55.6982 63.3036C54.2523 63.803 53.4704 64.9224 53.0931 66.6361C52.7042 68.402 52.7957 70.6197 53.0232 72.9619C53.0906 73.6564 53.1712 74.3689 53.2514 75.0777C53.4313 76.6686 53.6092 78.2412 53.6319 79.5516C53.6485 80.5097 53.5887 81.4529 53.3404 82.2501C53.0854 83.0687 52.586 83.8609 51.6561 84.248C51.1481 84.4596 50.5566 84.415 50.0979 84.3324C49.5842 84.2399 49.0016 84.0543 48.3896 83.7829C47.1624 83.2388 45.7346 82.3132 44.4013 80.9416C41.7094 78.1724 39.4393 73.6231 39.9093 66.8344C40.1031 64.0352 41.002 61.8974 42.4226 60.3418C43.8353 58.7948 45.6788 57.9163 47.6072 57.4745Z" fill="#40016A"/>
<path fill-rule="evenodd" clip-rule="evenodd" d="M80.5232 60.9757C80.7248 62.2527 80.6573 63.579 80.0875 64.4602C79.7512 64.9803 79.2283 65.3457 78.5556 65.3758C77.9863 65.4013 77.4752 65.1743 77.0987 64.9603C76.4297 64.5801 75.6597 63.9199 74.9085 63.2758C74.8167 63.1971 74.7252 63.1186 74.6342 63.041C72.8141 61.4875 70.8005 59.8968 68.5692 59.6578C66.9685 59.4862 65.971 60.1851 65.2889 61.2154C64.5639 62.3104 64.2418 63.745 64.1862 64.7297C64.1504 65.3638 63.6073 65.8488 62.9732 65.813C62.3391 65.7772 61.8541 65.2341 61.8899 64.6C61.9607 63.3461 62.3557 61.4794 63.3711 59.9457C64.4293 58.3474 66.1955 57.0903 68.8143 57.3709C71.8575 57.6969 74.387 59.8061 76.1274 61.2916C76.2087 61.361 76.2878 61.4286 76.365 61.4946C77.1837 62.1945 77.7721 62.6975 78.2351 62.9607C78.2397 62.9633 78.2442 62.9658 78.2486 62.9683C78.3251 62.6675 78.3763 62.1257 78.2513 61.3343C78.0889 60.3054 77.6544 59.0479 76.8528 57.7897C75.2681 55.3021 72.2346 52.7897 66.9782 52.09C62.7019 51.5208 60.5905 52.4812 59.5725 53.5559C58.5269 54.6598 58.3525 56.1769 58.5532 57.269C58.668 57.8937 58.2547 58.4931 57.6301 58.608C57.0054 58.7228 56.4059 58.3095 56.2911 57.6848C56.0008 56.1052 56.2078 53.7636 57.9026 51.9743C59.625 50.1558 62.6131 49.1887 67.2817 49.8101C73.2064 50.5987 76.8407 53.4901 78.7926 56.5539C79.7593 58.0712 80.3102 59.6262 80.5232 60.9757ZM34.6776 52.2407C36.7759 51.4266 39.3339 51.6599 40.7123 53.2879C41.1227 53.7726 41.0625 54.4982 40.5778 54.9086C40.0931 55.3191 39.3674 55.2588 38.957 54.7741C38.434 54.1564 37.0602 53.7833 35.5095 54.3849C34.0732 54.9422 32.6708 56.3101 32.3411 58.8114C31.8189 62.7726 33.0532 65.2609 34.1611 66.5404C34.586 65.626 35.193 64.6164 36.0018 63.6799C37.3531 62.1152 39.3156 60.7041 41.97 60.3618C42.5999 60.2805 43.1764 60.7253 43.2577 61.3552C43.3389 61.9851 42.8941 62.5616 42.2642 62.6429C40.3066 62.8954 38.8239 63.9311 37.7425 65.1833C36.6493 66.449 36.0148 67.8843 35.7741 68.772C35.6811 69.1148 35.4349 69.3955 35.1071 69.5323C34.7793 69.6691 34.4066 69.6468 34.0975 69.4717C32.1918 68.3927 29.2328 64.7923 30.0608 58.5108C30.5013 55.1691 32.465 53.0991 34.6776 52.2407Z" fill="#40016A"/>
<path fill-rule="evenodd" clip-rule="evenodd" d="M81.2095 78.9077C81.7295 79.2724 81.8553 79.9896 81.4906 80.5096C81.0334 81.1614 80.3887 82.1861 80.0803 82.8438C79.8106 83.4188 79.1259 83.6664 78.5508 83.3968C77.9758 83.1271 77.7282 82.4424 77.9978 81.8673C78.3896 81.0318 79.1222 79.8808 79.6077 79.1887C79.9724 78.6688 80.6896 78.5429 81.2095 78.9077Z" fill="#40016A"/>
</g>
<defs>
<clipPath id="clip0_217_3399">
<rect width="60" height="60" fill="white" transform="translate(30 30)"/>
</clipPath>
</defs>
</svg>
