<svg width="36" height="36" viewBox="0 0 36 36" fill="none" xmlns="http://www.w3.org/2000/svg">
<path d="M1.5 9.5625L14.9721 19.2072C16.0631 19.9884 16.6086 20.3789 17.2019 20.5301C17.7259 20.6637 18.2741 20.6637 18.7981 20.5301C19.3914 20.3789 19.9369 19.9884 21.0279 19.2072L34.5 9.5625M9.42 31.5H26.58C29.3523 31.5 30.7383 31.5 31.7973 30.9482C32.7287 30.4629 33.4859 29.6885 33.9605 28.7359C34.5 27.6528 34.5 26.2353 34.5 23.4V12.6C34.5 9.76473 34.5 8.3471 33.9605 7.26418C33.4859 6.3116 32.7287 5.53714 31.7973 5.05178C30.7383 4.5 29.3523 4.5 26.58 4.5H9.42C6.64774 4.5 5.2616 4.5 4.20275 5.05178C3.27134 5.53714 2.51409 6.3116 2.03952 7.26418C1.5 8.3471 1.5 9.76473 1.5 12.6V23.4C1.5 26.2353 1.5 27.6528 2.03952 28.7359C2.51409 29.6885 3.27134 30.4629 4.20275 30.9482C5.2616 31.5 6.64774 31.5 9.42 31.5Z" stroke="#40016A" stroke-width="3" stroke-linecap="round" stroke-linejoin="round"/>
</svg>
