<svg width="120" height="120" viewBox="0 0 120 120" fill="none" xmlns="http://www.w3.org/2000/svg">
<rect width="120" height="120" rx="60" fill="#FFD500"/>
<g clip-path="url(#clip0_217_3362)">
<path d="M79.7399 51.4557C79.87 51.5095 80.0062 51.5356 80.1416 51.5356C80.43 51.5356 80.7125 51.4168 80.9157 51.1957C81.9171 50.1061 82.714 48.8545 83.2843 47.4759C85.9488 41.0375 82.8784 33.6316 76.44 30.9671C73.3209 29.6765 69.8863 29.6776 66.7683 30.9704C65.4048 31.5357 64.1731 32.3185 63.1108 33.2812C60.9324 32.5336 58.5884 32.6018 56.4364 33.4942C54.2849 34.3862 52.5798 35.9964 51.5684 38.0667C50.1365 38.138 48.7124 38.4562 47.3488 39.0215C44.2308 40.3142 41.8026 42.7439 40.5119 45.8628C39.9674 47.1786 39.6502 48.5605 39.5692 49.97C39.5358 50.5495 39.9787 51.0465 40.5582 51.0798C41.1355 51.1121 41.6347 50.6705 41.668 50.0907C41.7355 48.9165 42.0001 47.7646 42.4543 46.6666C43.5303 44.0666 45.5544 42.0412 48.1538 40.9635C50.7535 39.8858 53.6168 39.885 56.2167 40.9609C56.5032 41.0794 56.7829 41.2096 57.0555 41.3511C52.9971 42.1756 49.4977 44.9739 47.8699 48.9076C46.2419 52.8414 46.7403 57.294 49.0293 60.7454C48.7363 60.653 48.4465 60.5473 48.1602 60.4288C44.9479 59.0994 42.5997 56.2724 41.8789 52.8663C41.7588 52.2984 41.2006 51.9353 40.6329 52.0557C40.0649 52.176 39.7018 52.7338 39.822 53.3018C40.6867 57.3865 43.5033 60.7768 47.3563 62.3713C48.7346 62.9419 50.1834 63.2624 51.6621 63.3239C51.6766 63.3245 51.6914 63.3247 51.7059 63.3247C52.1294 63.3247 52.5139 63.0696 52.6769 62.6755C52.8457 62.2678 52.7418 61.7981 52.4171 61.4995C49.1743 58.5197 48.1277 53.7824 49.8124 49.7114C50.7222 47.5128 52.3336 45.7412 54.3157 44.6041C54.0704 44.8926 53.8378 45.1933 53.6222 45.5085C52.1435 47.6708 51.496 50.2963 51.7991 52.9011C52.1022 55.5061 53.3352 57.9128 55.2708 59.6778C57.1867 61.425 59.6622 62.4328 62.2413 62.5159C62.2527 62.5161 62.264 62.5165 62.2752 62.5165C62.6722 62.5165 63.0368 62.2924 63.2151 61.9356C63.3988 61.5687 63.3519 61.1285 63.0955 60.8082C62.984 60.6692 62.8759 60.5279 62.7691 60.3856C63.0222 60.3964 63.2906 60.4033 63.5768 60.4033C64.7628 60.4033 66.2202 60.2938 67.8354 59.9427C67.9958 62.2127 68.0005 64.4915 67.8501 66.763C67.4852 66.8881 67.1101 66.9953 66.727 67.0785C66.1597 67.2017 65.7998 67.7617 65.9231 68.3289C66.0302 68.8209 66.4654 69.157 66.9493 69.157C67.0231 69.157 67.0983 69.1492 67.1736 69.1329C67.3333 69.0981 67.4919 69.059 67.6497 69.0181C67.4293 70.9878 67.093 72.9477 66.6368 74.8861C63.4312 75.236 60.6396 74.289 59.3668 73.7516C59.7659 72.1547 60.0705 70.5364 60.2804 68.9007C61.1943 69.1425 62.5256 69.4045 64.0661 69.4302C64.0721 69.4302 64.0781 69.4303 64.0841 69.4303C64.6564 69.4303 65.125 68.9712 65.1347 68.3967C65.1442 67.8162 64.6815 67.3379 64.1012 67.3282C62.5681 67.3026 61.2627 67.0012 60.4986 66.7783C60.5634 65.9428 60.6067 65.1039 60.6224 64.2607C60.6331 63.6801 60.1713 63.2008 59.591 63.1902C59.0148 63.1768 58.5311 63.641 58.5204 64.2215C58.4266 69.2648 57.4042 74.1769 55.4858 78.8331C50.4013 79.4165 45.4862 81.1797 41.1981 84.0111C40.7137 84.3309 40.5802 84.9831 40.9001 85.4674C41.2199 85.9521 41.872 86.0855 42.3565 85.7654C48.1578 81.935 55.1871 80.1923 62.1499 80.859C69.2049 81.5344 75.8552 84.6712 80.8758 89.6918C81.0811 89.897 81.3501 89.9997 81.6191 89.9997C81.888 89.9997 82.1571 89.8972 82.3624 89.6918C82.7729 89.2813 82.7729 88.6158 82.3624 88.2054C78.2321 84.0751 73.0692 81.1396 67.4714 79.6769C70.6518 69.9984 70.9009 59.5974 68.239 49.8176C69.7811 52.1177 70.7502 54.7496 71.0565 57.5076C71.1017 57.9155 71.3803 58.2595 71.7696 58.389C71.8783 58.4252 71.9901 58.4427 72.101 58.4427C72.3869 58.4427 72.6662 58.3258 72.8684 58.11C74.6322 56.2263 75.6684 53.7626 75.7859 51.1726C75.9049 48.5557 75.0733 45.9827 73.4443 43.9275C71.8153 41.8721 69.5 40.4751 66.9252 39.9935C66.5498 39.9233 66.1727 39.8755 65.7952 39.845C68.0005 39.2462 70.3927 39.3579 72.5913 40.2676C73.6197 40.6932 74.5663 41.2717 75.4044 41.9869C75.8463 42.3637 76.5095 42.311 76.8862 41.8696C77.263 41.428 77.2105 40.7645 76.7689 40.3876C75.7626 39.5292 74.6276 38.8351 73.3951 38.3251C69.4612 36.6971 65.0084 37.1958 61.5573 39.4847C61.6497 39.1917 61.7553 38.9017 61.8739 38.6154C62.9499 36.0153 64.974 33.99 67.5734 32.9122C70.1727 31.8346 73.0363 31.8335 75.6362 32.9095C81.0035 35.1308 83.5632 41.3045 81.3419 46.6719C81.2232 46.9587 81.0929 47.2386 80.9512 47.5117C80.5984 45.7691 79.8807 44.1015 78.8386 42.6435C78.5011 42.1712 77.8443 42.0621 77.3722 42.3996C76.8999 42.7372 76.7907 43.3937 77.1283 43.866C78.4915 45.7728 79.1885 48.1079 79.0917 50.4407C79.0733 50.8815 79.3323 51.287 79.7399 51.4557ZM57.0206 39.0184C56.0128 38.6013 54.9717 38.3212 53.9193 38.1739C54.7196 36.9572 55.8633 36.0074 57.2415 35.436C58.6202 34.8644 60.1 34.7264 61.5256 35.0202C60.8861 35.8691 60.3485 36.8035 59.9314 37.8116C59.6115 38.5846 59.373 39.3803 59.212 40.1904C58.5252 39.7318 57.7937 39.3383 57.0206 39.0184ZM56.6872 58.1246C55.126 56.7012 54.1318 54.7599 53.8872 52.6585C53.6427 50.5571 54.1647 48.4394 55.3572 46.6956C56.0885 45.6264 57.0403 44.7399 58.1355 44.0912C57.2935 46.7114 57.0186 49.492 57.3403 52.2569C57.6621 55.0219 58.5678 57.665 59.989 60.022C58.7743 59.6417 57.6445 58.9974 56.6872 58.1246ZM61.3419 58.1424C60.3328 56.2485 59.6802 54.1734 59.4289 52.0138C59.0912 49.111 59.4927 46.1907 60.5868 43.5064C62.1179 44.1496 63.5431 45.008 64.8225 46.0556C65.3018 47.3403 65.7282 48.6404 66.0978 49.9529C64.6973 50.314 63.3514 50.5288 62.0872 50.5876C61.5072 50.6146 61.0591 51.1066 61.086 51.6864C61.1123 52.2497 61.5772 52.6885 62.1351 52.6885C62.1515 52.6885 62.1682 52.6883 62.1847 52.6874C63.5931 52.6217 65.0826 52.385 66.6236 51.9878C67.0799 53.9175 67.4178 55.8689 67.6406 57.8313C64.6986 58.5124 62.2966 58.2848 61.3419 58.1424ZM62.3498 78.7665C60.839 78.6219 59.3256 78.5853 57.8203 78.6501C58.1815 77.7082 58.5081 76.7567 58.8 75.7966C60.1216 76.3324 62.4398 77.0681 65.2065 77.0681C65.4918 77.0681 65.7836 77.0572 66.0779 77.0405C65.8721 77.7673 65.649 78.4903 65.4096 79.2092C64.4 79.0142 63.3791 78.8651 62.3498 78.7665ZM71.7966 45.2333C73.1108 46.8913 73.7817 48.9667 73.6857 51.0771C73.627 52.3711 73.2845 53.6259 72.6947 54.7541C72.0311 52.0829 70.8009 49.5742 69.072 47.3928C67.3428 45.2114 65.1812 43.4409 62.7323 42.1851C63.9656 41.8685 65.2651 41.8216 66.5386 42.0598C68.6152 42.4483 70.4826 43.5753 71.7966 45.2333Z" fill="#40016A"/>
<path d="M38.4348 86.0521C37.6151 86.7266 36.8171 87.4512 36.0628 88.2057C35.6523 88.6162 35.6523 89.2817 36.0628 89.6921C36.2681 89.8973 36.5371 90 36.8061 90C37.075 90 37.3441 89.8975 37.5494 89.6921C38.2559 88.9854 39.0033 88.3068 39.7709 87.6752C40.2192 87.3062 40.2833 86.6438 39.9145 86.1955C39.5455 85.7474 38.8828 85.6832 38.4348 86.0521Z" fill="#40016A"/>
<path d="M49.1487 87.5369C48.9783 87.1322 48.5675 86.8668 48.1267 86.8894C47.7056 86.9108 47.3316 87.1885 47.189 87.585C46.8641 88.4882 47.8808 89.3352 48.7094 88.8457C49.1535 88.5832 49.3511 88.0153 49.1487 87.5369Z" fill="#40016A"/>
<path d="M43.3564 87.6307C43.0165 86.8055 41.8155 86.777 41.4358 87.5833C41.2425 87.9936 41.3385 88.4964 41.6718 88.8047C42.0114 89.1189 42.5291 89.1694 42.9251 88.9336C43.3693 88.6691 43.5478 88.1076 43.3564 87.6307Z" fill="#40016A"/>
<path d="M46.0416 85.4808C45.8791 85.0741 45.4542 84.8131 45.0196 84.8342C44.5808 84.8555 44.1935 85.159 44.0657 85.5786C43.7875 86.4917 44.8237 87.2729 45.6277 86.7747C46.059 86.5076 46.2353 85.9491 46.0416 85.4808Z" fill="#40016A"/>
<path d="M70.7322 85.855C70.5651 85.4586 70.1681 85.1958 69.7358 85.2069C69.3165 85.2175 68.935 85.4844 68.7823 85.875C68.4305 86.7741 69.4323 87.6453 70.2749 87.1736C70.7315 86.9181 70.9371 86.3394 70.7322 85.855Z" fill="#40016A"/>
<path d="M74.882 87.0956C74.473 87.1807 74.1453 87.5 74.0582 87.9101C73.9624 88.3608 74.1859 88.8366 74.5919 89.0526C74.9751 89.2563 75.4564 89.2011 75.7827 88.9143C76.1341 88.6053 76.2361 88.0837 76.0311 87.6646C75.8252 87.243 75.343 87.0026 74.882 87.0956Z" fill="#40016A"/>
</g>
<defs>
<clipPath id="clip0_217_3362">
<rect width="60" height="60" fill="white" transform="translate(30 30)"/>
</clipPath>
</defs>
</svg>
