<svg width="1280" height="13" viewBox="0 0 1280 13" fill="none" xmlns="http://www.w3.org/2000/svg">
<path fill-rule="evenodd" clip-rule="evenodd" d="M1240 0C1246.13 0.00034362 1252.26 1.40798 1257.89 4.22292L1262.11 6.33437C1267.74 9.14964 1273.87 10.5573 1280 10.5573V13H0V10.5573C6.129 10.5573 12.258 9.14963 17.8885 6.33436L22.1115 4.22291C27.7413 1.40798 33.8695 0.000343619 39.9978 0C39.9992 0 40.0007 0 40.0022 0C46.1305 0.00034362 52.2587 1.40798 57.8885 4.22292L62.1115 6.33437C73.3726 11.9649 86.6274 11.9649 97.8885 6.33436L102.111 4.22291C107.741 1.40798 113.87 0.000343619 119.998 0C119.999 0 120.001 0 120.002 0C126.13 0.00034362 132.259 1.40798 137.889 4.22292L142.111 6.33437C153.373 11.9649 166.627 11.9649 177.889 6.33436L182.111 4.22291C187.741 1.40798 193.869 0.000343619 199.998 0C199.999 0 200.001 0 200.002 0C206.13 0.00034362 212.259 1.40798 217.889 4.22292L222.111 6.33437C233.373 11.9649 246.627 11.9649 257.889 6.33436L262.111 4.22291C267.741 1.40798 273.87 0.000343619 279.998 0C279.999 0 280.001 0 280.002 0C286.13 0.00034362 292.259 1.40798 297.889 4.22292L302.111 6.33437C313.373 11.9649 326.627 11.9649 337.889 6.33436L342.111 4.22291C347.741 1.40798 353.87 0.000343619 359.998 0C359.999 0 360.001 0 360.002 0C366.13 0.00034362 372.259 1.40798 377.889 4.22292L382.111 6.33437C393.373 11.9649 406.627 11.9649 417.889 6.33436L422.111 4.22291C427.741 1.40798 433.87 0.000343619 439.998 0C439.999 0 440.001 0 440.002 0C446.13 0.00034362 452.259 1.40798 457.889 4.22292L462.111 6.33437C473.373 11.9649 486.627 11.9649 497.889 6.33436L502.111 4.22291C507.741 1.40798 513.87 0.000343619 519.998 0C519.999 0 520.001 0 520.002 0C526.13 0.00034362 532.259 1.40798 537.889 4.22292L542.111 6.33437C553.373 11.9649 566.627 11.9649 577.889 6.33436L582.111 4.22291C587.741 1.40798 593.87 0.000343619 599.998 0C599.999 0 600.001 0 600.002 0C606.13 0.00034362 612.259 1.40798 617.889 4.22292L622.111 6.33437C633.373 11.9649 646.627 11.9649 657.889 6.33436L662.111 4.22291C667.741 1.40798 673.87 0.000343619 679.998 0C679.999 0 680.001 0 680.002 0C686.13 0.00034362 692.259 1.40798 697.889 4.22292L702.111 6.33437C713.373 11.9649 726.627 11.9649 737.889 6.33436L742.111 4.22291C747.741 1.40798 753.87 0.000343619 759.998 0C759.999 0 760.001 0 760.002 0C766.13 0.00034362 772.259 1.40798 777.889 4.22292L782.111 6.33437C793.373 11.9649 806.627 11.9649 817.889 6.33436L822.111 4.22291C827.741 1.40798 833.87 0.000343619 839.998 0C839.999 0 840.001 0 840.002 0C846.13 0.00034362 852.259 1.40798 857.889 4.22292L862.111 6.33437C873.373 11.9649 886.627 11.9649 897.889 6.33436L902.111 4.22291C907.741 1.40798 913.87 0.000343619 919.998 0C919.999 0 920.001 0 920.002 0C926.13 0.00034362 932.259 1.40798 937.889 4.22292L942.111 6.33437C953.373 11.9649 966.627 11.9649 977.889 6.33436L982.111 4.22291C987.741 1.40798 993.87 0.000343619 999.998 0C999.999 0 1000 0 1000 0C1006.13 0.00034362 1012.26 1.40798 1017.89 4.22292L1022.11 6.33437C1033.37 11.9649 1046.63 11.9649 1057.89 6.33436L1062.11 4.22291C1067.74 1.40798 1073.87 0.000343619 1080 0C1080 0 1080 0 1080 0C1086.13 0.00034362 1092.26 1.40798 1097.89 4.22292L1102.11 6.33437C1113.37 11.9649 1126.63 11.9649 1137.89 6.33436L1142.11 4.22291C1147.74 1.40798 1153.87 0.000343619 1160 0C1160 0 1160 0 1160 0C1166.13 0.00034362 1172.26 1.40798 1177.89 4.22292L1182.11 6.33437C1193.37 11.9649 1206.63 11.9649 1217.89 6.33436L1222.11 4.22291C1227.74 1.40798 1233.87 0.000343619 1240 0C1240 0 1240 0 1240 0Z" fill="#40016A"/>
</svg>
