<svg width="120" height="120" viewBox="0 0 120 120" fill="none" xmlns="http://www.w3.org/2000/svg">
<rect width="120" height="120" rx="60" fill="#FFD500"/>
<g clip-path="url(#clip0_217_3416)">
<path d="M40.5497 41.8504L40.5532 41.8713C40.6791 42.5989 40.8408 43.3092 41.0348 43.9848C41.4115 45.2849 41.8999 46.5313 42.4841 47.686C43.5811 49.8737 44.9935 51.8148 46.8038 53.6224C48.6204 55.4267 50.5611 56.8317 52.7331 57.9153C53.3088 58.2053 53.9086 58.4718 54.5252 58.7121C54.3168 59.472 54.2117 60.2567 54.2117 61.0571C54.2117 62.0316 54.3705 62.9854 54.676 63.8908C51.9438 63.1697 50.3526 61.9781 50.3526 61.0571C50.3526 60.7355 50.5385 60.3904 50.905 60.031C51.3615 59.5833 51.3688 58.8505 50.9211 58.3939C50.4733 57.9371 49.7404 57.9305 49.284 58.3778C48.4684 59.1775 48.0372 60.1042 48.0372 61.0572C48.0372 64.2033 52.7131 66.6101 59.0587 66.828C59.1055 66.8296 59.1521 66.8314 59.1989 66.8328C59.4635 66.8405 59.7298 66.8458 60 66.8458C66.82 66.8458 71.9629 64.3573 71.9629 61.0572C71.9629 60.8139 71.9658 60.5631 71.9688 60.3077C71.9927 58.2051 72.0228 55.5885 70.4438 54.0093C69.5036 53.0693 68.1262 52.6054 66.5709 52.3807C66.7318 51.9815 66.8814 51.5803 67.0147 51.1791C67.7895 48.8741 68.1732 46.5102 68.1874 43.9494C68.1946 41.3961 67.826 39.0279 67.0619 36.7134C66.6605 35.4824 66.1276 34.2579 65.476 33.0711C65.1388 32.4609 64.7527 31.8457 64.3333 31.2497L64.3108 31.2177C63.7747 30.4579 62.8978 30.0028 61.9653 30C61.9625 30 61.96 30 61.9572 30C61.0278 30 60.1521 30.4498 59.6209 31.1936L59.5991 31.2238C59.1726 31.8219 58.7835 32.434 58.4414 33.0457C57.7863 34.2234 57.2478 35.4436 56.8423 36.6681C56.0668 38.9803 55.6879 41.3457 55.6845 43.9019C55.6849 44.2122 55.693 44.5206 55.7048 44.8283C55.6707 44.7936 55.6373 44.7586 55.603 44.724C53.7968 42.9151 51.8586 41.5057 49.6815 40.4176C48.5264 39.8349 47.2838 39.3513 45.9858 38.9796C45.3156 38.7894 44.6082 38.6311 43.8875 38.5097L43.8617 38.5055C42.9451 38.3528 42.0053 38.6544 41.3473 39.3146C40.689 39.9753 40.39 40.9172 40.5469 41.8342C40.5472 41.8363 40.5493 41.8485 40.5497 41.8504ZM58 43.9022C58.0033 41.6022 58.3427 39.4766 59.0389 37.4004C59.4004 36.3092 59.8802 35.2228 60.4637 34.1737C60.7633 33.638 61.1068 33.0978 61.4842 32.5684L60.5417 31.8963L61.497 32.5503C61.6427 32.3463 61.8471 32.3154 61.957 32.3154C61.9576 32.3154 61.9583 32.3154 61.9586 32.3154C62.0684 32.3157 62.274 32.347 62.4134 32.5443L62.435 32.575C62.8113 33.1098 63.1526 33.6532 63.4481 34.1879C64.0291 35.2458 64.5044 36.3368 64.8622 37.4349C65.5483 39.5136 65.8788 41.6422 65.8723 43.9395C65.8596 46.2467 65.5155 48.3736 64.8189 50.4452C64.7349 50.6982 64.6424 50.9507 64.5461 51.2028C64.0269 50.3394 63.4407 49.1355 63.0643 47.653C62.7801 46.5337 62.6383 45.3108 62.6307 43.9169C62.6268 42.5792 62.7658 41.3385 63.056 40.1235C63.2044 39.5015 62.8208 38.8769 62.1989 38.7285C61.576 38.5799 60.9523 38.9639 60.8039 39.5856C60.4706 40.9813 60.3108 42.4002 60.3153 43.9267C60.324 45.5135 60.4891 46.9187 60.82 48.2225C61.2325 49.847 61.8622 51.1923 62.4506 52.2031C61.402 52.2697 60.4331 51.7234 59.9791 50.8072L59.9095 50.6676C59.4663 49.7824 58.9702 48.9369 58.4177 48.1227C58.1435 46.771 58.0019 45.3518 58 43.9022ZM42.9875 40.9488C43.0649 40.8711 43.2309 40.7479 43.4795 40.7891C43.485 40.79 43.4934 40.7915 43.499 40.7924C44.1405 40.9004 44.7646 41.04 45.351 41.2064C46.5068 41.5374 47.6129 41.9677 48.6424 42.4871C50.5965 43.4638 52.3374 44.7308 53.9625 46.3581C55.5907 47.9973 56.8587 49.7462 57.8417 51.7099L57.9051 51.8368C57.9659 51.9597 58.0326 52.0781 58.1027 52.1939H57.5714C57.5032 52.1939 57.4341 52.1906 57.3662 52.1843C57.1714 52.1662 56.9845 52.1244 56.8109 52.0603C56.0518 51.7798 55.3201 51.4303 54.6357 51.0214C53.6447 50.4293 52.6807 49.6623 51.691 48.6789C50.7427 47.7324 49.9645 46.7531 49.3114 45.6858C48.9777 45.1402 48.2648 44.9686 47.7197 45.3024C47.1743 45.6362 47.0025 46.3487 47.3363 46.8942C48.0862 48.12 48.9756 49.2397 50.057 50.3196C51.1843 51.4393 52.2934 52.3189 53.4481 53.009C54.2546 53.4908 55.1161 53.9023 56.0088 54.2323C56.372 54.3663 56.7567 54.4529 57.152 54.4897C57.2906 54.5027 57.4318 54.5091 57.5714 54.5091H61.8789C62.1253 54.5287 62.3755 54.5306 62.628 54.513C62.7803 54.5025 62.935 54.4969 63.0877 54.4969C64.4551 54.4969 67.6574 54.4969 68.807 55.6464C69.1106 55.9499 69.3061 56.3832 69.4336 56.8896H67.6798C67.0403 56.8896 66.5221 57.4079 66.5221 58.0473C66.5221 58.6866 67.0403 59.2049 67.6798 59.2049H69.6585C69.6618 59.566 69.6579 59.9281 69.6538 60.2812C69.6508 60.5458 69.6479 60.8054 69.6479 61.0573C69.6479 62.4734 65.8894 64.5304 60.0003 64.5304C59.795 64.5304 59.5903 64.5274 59.3862 64.5222C59.343 64.5211 59.3006 64.5193 59.2575 64.518C59.0887 64.5127 58.9203 64.5064 58.7528 64.4977C58.7192 64.4961 58.6858 64.494 58.6523 64.4922C58.4593 64.4814 58.2672 64.4688 58.0762 64.4533C58.0723 64.4529 58.0684 64.4527 58.0645 64.4524C57.8546 64.4352 57.6459 64.4153 57.4388 64.3926C56.8408 63.384 56.527 62.2408 56.527 61.0573C56.527 60.1587 56.7059 59.2874 57.0588 58.4675C57.1873 58.1689 57.1843 57.8301 57.0508 57.5339C56.9173 57.2375 56.6653 57.0111 56.3564 56.9098C55.4563 56.6145 54.5875 56.257 53.7706 55.8455C51.819 54.8718 50.074 53.6075 48.4377 51.9819C46.8079 50.3547 45.5375 48.61 44.5516 46.6443C44.0304 45.6141 43.5954 44.5026 43.2595 43.3432C43.0891 42.7503 42.9463 42.1224 42.8347 41.477C42.8342 41.4745 42.8319 41.4619 42.8317 41.4595L42.8287 41.4431C42.7864 41.1942 42.9101 41.0266 42.9875 40.9488Z" fill="#40016A"/>
<path d="M61.5434 59.205C62.1828 59.205 62.7011 58.6867 62.7011 58.0473C62.7011 57.408 62.1828 56.8896 61.5434 56.8896C60.9041 56.8896 60.3857 57.408 60.3857 58.0473C60.3857 58.6867 60.9041 59.205 61.5434 59.205Z" fill="#40016A"/>
<path d="M72.2332 52.0167C71.6109 51.8655 70.9858 52.2474 70.8351 52.8688C70.6842 53.4901 71.0657 54.116 71.6872 54.2668C78.653 55.957 83.1539 59.0769 83.1539 62.2151C83.1539 64.4729 80.8142 66.7703 76.7348 68.5186C72.2837 70.4262 66.3404 71.4768 59.9998 71.4768C53.6591 71.4768 47.7157 70.4262 43.2647 68.5186C39.1853 66.7703 36.8457 64.4729 36.8457 62.2151C36.8457 59.7339 39.7138 57.1909 44.5179 55.4124C45.1176 55.1905 45.4237 54.5245 45.2017 53.9248C44.9797 53.3252 44.314 53.0186 43.7141 53.2411C37.7919 55.4333 34.5303 58.6204 34.5303 62.2151C34.5303 65.4905 37.3083 68.485 42.3526 70.6468C43.404 71.0973 44.5313 71.5027 45.7214 71.8612V81.8962C45.7214 84.4554 47.4182 86.6679 50.4991 88.1258C53.0534 89.3343 56.4274 90.0001 59.9998 90.0001C63.5721 90.0001 66.9461 89.3344 69.5004 88.1258C72.5814 86.6679 74.2781 84.4554 74.2781 81.8962V71.8611C75.468 71.5026 76.5955 71.0972 77.6467 70.6469C82.6913 68.485 85.4692 65.4906 85.4692 62.2153C85.4692 57.84 80.521 54.0275 72.2332 52.0167ZM59.9998 87.6845C54.2004 87.6845 48.0368 85.6558 48.0368 81.8959V75.7661C48.6301 76.2718 49.3342 76.7336 50.1455 77.1467C50.3138 77.2323 50.4931 77.2729 50.6697 77.2729C51.0912 77.2729 51.4978 77.0417 51.7022 76.64C51.9922 76.0702 51.7655 75.3732 51.1957 75.0831C50.1498 74.5506 48.9584 73.7255 48.3836 72.5597C51.929 73.3646 55.8915 73.7917 59.9996 73.7917C64.1102 73.7917 68.0749 73.3641 71.6218 72.5583C70.254 75.3754 64.9921 76.8789 59.9996 76.8789C58.4988 76.8789 57.0269 76.7495 55.625 76.4945C54.995 76.3792 54.3934 76.7973 54.2787 77.4263C54.1643 78.0553 54.5814 78.658 55.2104 78.7726C56.749 79.0525 58.36 79.1944 59.9995 79.1944C63.5719 79.1944 66.9459 78.5287 69.5001 77.32C70.4579 76.8668 71.2817 76.3405 71.9625 75.7539V81.8958C71.9627 85.6559 65.799 87.6845 59.9998 87.6845Z" fill="#40016A"/>
</g>
<defs>
<clipPath id="clip0_217_3416">
<rect width="60" height="60" fill="white" transform="translate(30 30)"/>
</clipPath>
</defs>
</svg>
